<svg width="512" height="512" viewBox="0 0 512 512" fill="none" xmlns="http://www.w3.org/2000/svg">
<g clip-path="url(#clip0_891_95)">
<path d="M505.749 475.584L378.41 348.246C413.111 305.805 430.173 251.65 426.065 196.983C421.958 142.316 396.996 91.3182 356.342 54.5393C315.689 17.7605 262.455 -1.98607 207.65 -0.615789C152.846 0.75449 100.665 23.1367 61.9003 61.9013C23.1358 100.666 0.753514 152.847 -0.616765 207.651C-1.98704 262.456 17.7595 315.69 54.5384 356.343C91.3172 396.997 142.315 421.959 196.982 426.066C251.649 430.174 305.804 413.112 348.245 378.411L475.583 505.75C479.607 509.636 484.996 511.786 490.589 511.737C496.183 511.689 501.533 509.445 505.489 505.49C509.444 501.534 511.688 496.184 511.736 490.59C511.785 484.997 509.635 479.608 505.749 475.584ZM213.333 384C179.578 384 146.581 373.991 118.515 355.238C90.4493 336.485 68.5745 309.83 55.6571 278.645C42.7398 247.46 39.36 213.144 45.9452 180.038C52.5304 146.932 68.7849 116.522 92.653 92.654C116.521 68.7858 146.931 52.5314 180.037 45.9462C213.143 39.361 247.459 42.7408 278.644 55.6581C309.829 68.5755 336.484 90.4502 355.237 118.516C373.99 146.582 383.999 179.579 383.999 213.334C383.948 258.582 365.951 301.962 333.956 333.957C301.961 365.952 258.581 383.949 213.333 384Z" fill="#686868"/>
</g>
<defs>
<clipPath id="clip0_891_95">
<rect width="512" height="512" fill="white"/>
</clipPath>
</defs>
</svg>
